<?xml version="1.0"?>
<svg xmlns="http://www.w3.org/2000/svg" xmlns:xlink="http://www.w3.org/1999/xlink" xmlns:svgjs="http://svgjs.com/svgjs" version="1.1" width="512" height="512" x="0" y="0" viewBox="0 0 512 512" style="enable-background:new 0 0 512 512" xml:space="preserve" class=""><g><g xmlns="http://www.w3.org/2000/svg"><g><path d="m504.5 326.711h-497v-290.926c0-15.622 12.663-28.285 28.285-28.285h440.431c15.621 0 28.285 12.663 28.285 28.285v290.926z" fill="#9aa4ff" data-original="#b2e5fb" style="" class=""/></g><g><path d="m144.882 13.561h222.236v404.065h-222.236z" fill="#e6f7fe" transform="matrix(0 1 -1 0 471.594 -40.407)" data-original="#e6f7fe" style="" class=""/></g><g><path d="m53.967 104.476v-50.509c0-7.811 6.332-14.142 14.142-14.142h375.781c7.811 0 14.142 6.332 14.142 14.142v50.508h-404.065z" fill="#4172ca" data-original="#4172ca" style="" class=""/></g><g><path d="m476.215 391.362h-440.43c-15.621 0-28.285-12.663-28.285-28.285v-36.366h497v36.366c0 15.621-12.663 28.285-28.285 28.285z" fill="#d9e7ec" data-original="#d9e7ec" style=""/></g><g><g><path d="m389.341 504.5h-266.682c-4.463 0-8.081-3.618-8.081-8.081v-16.163c0-4.463 3.618-8.081 8.081-8.081h266.683c4.463 0 8.081 3.618 8.081 8.081v16.163c0 4.463-3.618 8.081-8.082 8.081z" fill="#d9e7ec" data-original="#d9e7ec" style=""/></g><g><path d="m389.341 472.175h-30.305c4.463 0 8.081 3.618 8.081 8.081v16.163c0 4.463-3.618 8.081-8.081 8.081h30.305c4.463 0 8.081-3.618 8.081-8.081v-16.163c.001-4.463-3.617-8.081-8.081-8.081z" fill="#c5d3dd" data-original="#c5d3dd" style=""/></g><g><path d="m344.173 463.613c-11.141-7.427-18.711-19.135-20.912-32.342l-6.651-39.909h-121.22l-6.651 39.909c-2.201 13.208-9.771 24.915-20.912 32.342l-12.843 8.562h202.033z" fill="#9facba" data-original="#9facba" style=""/></g></g><g><path d="m476.215 7.5h-30.305c15.621 0 28.285 12.664 28.285 28.285v290.927h30.305v-290.927c0-15.621-12.663-28.285-28.285-28.285z" fill="#7893f2" data-original="#91dafa" style="" class=""/></g><g><path d="m474.195 326.711v36.366c0 15.621-12.663 28.285-28.285 28.285h30.305c15.621 0 28.285-12.663 28.285-28.285v-36.366z" fill="#c5d3dd" data-original="#c5d3dd" style=""/></g><g><g><circle cx="393.382" cy="215.593" fill="#8591ff" r="111.118" data-original="#ffe07d" style="" class=""/></g><g><g><path d="m473.564 221.897v-12.607c0-2.979-2.265-5.47-5.231-5.753l-18.854-1.796c-2.243-.214-4.161-1.711-4.9-3.84-.711-2.049-1.541-4.043-2.483-5.973-.992-2.032-.7-4.456.74-6.199l12.069-14.61c1.897-2.297 1.738-5.66-.369-7.767l-8.914-8.914c-2.107-2.107-5.47-2.266-7.767-.369l-14.61 12.069c-1.743 1.44-4.167 1.732-6.199.74-1.93-.942-3.924-1.773-5.973-2.483-2.129-.738-3.626-2.657-3.84-4.9l-1.796-18.854c-.282-2.966-2.773-5.231-5.753-5.231h-12.606c-2.979 0-5.47 2.265-5.753 5.231l-1.796 18.854c-.214 2.243-1.711 4.161-3.84 4.9-2.049.711-4.043 1.541-5.973 2.483-2.032.992-4.456.7-6.199-.74l-14.61-12.069c-2.297-1.897-5.66-1.738-7.767.369l-8.914 8.914c-2.107 2.107-2.266 5.47-.369 7.767l12.069 14.61c1.44 1.743 1.732 4.167.74 6.199-.942 1.93-1.773 3.924-2.483 5.973-.738 2.129-2.657 3.626-4.9 3.84l-18.854 1.796c-2.966.282-5.231 2.773-5.231 5.753v12.606c0 2.979 2.265 5.47 5.231 5.753l18.854 1.796c2.243.214 4.161 1.711 4.9 3.84.711 2.049 1.541 4.043 2.483 5.973.992 2.032.7 4.456-.74 6.199l-12.069 14.61c-1.897 2.297-1.738 5.66.369 7.767l8.914 8.914c2.107 2.107 5.47 2.267 7.767.369l14.61-12.069c1.743-1.44 4.167-1.732 6.199-.74 1.93.942 3.924 1.773 5.973 2.483 2.129.738 3.626 2.657 3.84 4.9l1.796 18.854c.282 2.966 2.773 5.231 5.753 5.231h12.606c2.979 0 5.47-2.265 5.753-5.231l1.796-18.854c.214-2.243 1.711-4.161 3.84-4.9 2.049-.711 4.043-1.541 5.973-2.483 2.032-.992 4.456-.7 6.199.74l14.61 12.069c2.297 1.897 5.66 1.738 7.767-.369l8.914-8.914c2.107-2.107 2.266-5.47.369-7.767l-12.069-14.61c-1.44-1.743-1.732-4.167-.74-6.199.942-1.93 1.773-3.924 2.483-5.973.738-2.129 2.657-3.626 4.9-3.84l18.854-1.796c2.966-.282 5.231-2.773 5.231-5.752zm-80.182 16.812c-12.766 0-23.115-10.349-23.115-23.115s10.349-23.115 23.115-23.115 23.115 10.349 23.115 23.115-10.349 23.115-23.115 23.115z" fill="#5363f7" data-original="#a2f5c3" style="" class=""/></g></g></g><g><path d="m150.943 239.256h84.965c4.143 0 7.5-3.358 7.5-7.5s-3.357-7.5-7.5-7.5h-84.965c-4.143 0-7.5 3.358-7.5 7.5s3.358 7.5 7.5 7.5z" fill="#000000" data-original="#000000" style="" class=""/><path d="m86.293 239.256h32.325c4.143 0 7.5-3.358 7.5-7.5s-3.357-7.5-7.5-7.5h-32.325c-4.143 0-7.5 3.358-7.5 7.5s3.357 7.5 7.5 7.5z" fill="#000000" data-original="#000000" style="" class=""/><path d="m86.293 271.582h85.086c4.143 0 7.5-3.358 7.5-7.5s-3.357-7.5-7.5-7.5h-85.086c-4.143 0-7.5 3.358-7.5 7.5s3.357 7.5 7.5 7.5z" fill="#000000" data-original="#000000" style="" class=""/><path d="m243.408 264.082c0-4.142-3.357-7.5-7.5-7.5h-32.204c-4.143 0-7.5 3.358-7.5 7.5s3.357 7.5 7.5 7.5h32.204c4.143 0 7.5-3.358 7.5-7.5z" fill="#000000" data-original="#000000" style="" class=""/><path d="m86.293 303.907h56.68c4.143 0 7.5-3.358 7.5-7.5s-3.357-7.5-7.5-7.5h-56.68c-4.143 0-7.5 3.358-7.5 7.5s3.357 7.5 7.5 7.5z" fill="#000000" data-original="#000000" style="" class=""/><path d="m175.298 288.907c-4.143 0-7.5 3.358-7.5 7.5s3.357 7.5 7.5 7.5h28.406c4.143 0 7.5-3.358 7.5-7.5s-3.357-7.5-7.5-7.5z" fill="#000000" data-original="#000000" style="" class=""/><path d="m504.5 73.68c4.143 0 7.5-3.358 7.5-7.5v-30.4c0-19.729-16.051-35.78-35.78-35.78h-440.44c-19.729 0-35.78 16.051-35.78 35.78v327.3c0 19.729 16.051 35.78 35.78 35.78h150.758l-5.196 31.177c-1.854 11.12-8.297 21.083-17.675 27.335l-10.947 7.297h-30.06c-8.591 0-15.58 6.994-15.58 15.59v16.16c0 8.591 6.989 15.58 15.58 15.58h266.68c8.591 0 15.58-6.989 15.58-15.58v-16.16c0-8.596-6.989-15.59-15.58-15.59h-30.06l-10.947-7.297c-9.378-6.252-15.82-16.216-17.674-27.335l-5.197-31.178h150.758c19.729 0 35.78-16.051 35.78-35.78v-261.9c0-4.142-3.357-7.5-7.5-7.5s-7.5 3.358-7.5 7.5v56.736c-7.922-14.175-18.666-26.565-31.47-36.407v-67.538c0-11.933-9.708-21.64-21.641-21.64h-375.779c-11.933 0-21.641 9.708-21.641 21.64v148.03c0 4.142 3.357 7.5 7.5 7.5s7.5-3.358 7.5-7.5v-90.024h274.235c-36.323 20.299-60.94 59.134-60.94 103.618s24.618 83.319 60.94 103.618h-274.234v-82.212c0-4.142-3.357-7.5-7.5-7.5s-7.5 3.358-7.5 7.5v82.211h-31.47v-283.431c0-11.458 9.322-20.78 20.78-20.78h440.44c11.458 0 20.78 9.322 20.78 20.78v30.4c0 4.142 3.357 7.5 7.5 7.5zm-188.637 358.824c2.069 12.412 8.326 23.766 17.533 32.166h-96.086c-4.143 0-7.5 3.358-7.5 7.5s3.357 7.5 7.5 7.5h152.03c.32 0 .58.265.58.59v16.16c0 .32-.26.58-.58.58h-266.68c-.32 0-.58-.26-.58-.58v-16.16c0-.325.26-.59.58-.59h79.649c4.143 0 7.5-3.358 7.5-7.5s-3.357-7.5-7.5-7.5h-23.706c9.207-8.4 15.463-19.754 17.533-32.167l5.608-33.644h108.511zm181.137-113.293h-31.468v-9.535c12.803-9.841 23.546-22.231 31.468-36.406zm-435.53-222.235v-43.006c0-3.662 2.979-6.64 6.641-6.64h375.779c3.662 0 6.641 2.979 6.641 6.64v43.005h-389.061zm228.295 118.617c0-57.135 46.482-103.618 103.617-103.618s103.618 46.483 103.618 103.618-46.483 103.618-103.618 103.618-103.617-46.482-103.617-103.618zm207.235 118.618v28.869c0 11.458-9.322 20.78-20.78 20.78h-440.44c-11.458 0-20.78-9.322-20.78-20.78v-28.869z" fill="#000000" data-original="#000000" style="" class=""/><path d="m425.707 64.65h-12.122c-4.143 0-7.5 3.358-7.5 7.5s3.357 7.5 7.5 7.5h12.122c4.143 0 7.5-3.358 7.5-7.5s-3.357-7.5-7.5-7.5z" fill="#000000" data-original="#000000" style="" class=""/><path d="m381.26 64.65h-12.121c-4.143 0-7.5 3.358-7.5 7.5s3.357 7.5 7.5 7.5h12.121c4.143 0 7.5-3.358 7.5-7.5s-3.358-7.5-7.5-7.5z" fill="#000000" data-original="#000000" style="" class=""/><path d="m336.813 64.65h-12.122c-4.143 0-7.5 3.358-7.5 7.5s3.357 7.5 7.5 7.5h12.122c4.143 0 7.5-3.358 7.5-7.5s-3.357-7.5-7.5-7.5z" fill="#000000" data-original="#000000" style="" class=""/><path d="m152.607 127.28c-4.143 0-7.5 3.358-7.5 7.5v62.414c0 4.142 3.357 7.5 7.5 7.5s7.5-3.358 7.5-7.5v-24.777h28.191v24.777c0 4.142 3.357 7.5 7.5 7.5s7.5-3.358 7.5-7.5v-62.414c0-4.142-3.357-7.5-7.5-7.5s-7.5 3.358-7.5 7.5v22.637h-28.191v-22.637c0-4.142-3.357-7.5-7.5-7.5z" fill="#000000" data-original="#000000" style="" class=""/><path d="m86.293 204.694c4.143 0 7.5-3.358 7.5-7.5v-19.651c3.589-.018 7.599-.036 9.879-.036 14.037 0 25.458-11.266 25.458-25.113s-11.421-25.113-25.458-25.113h-17.379c-4.143 0-7.5 3.358-7.5 7.5v62.414c0 4.141 3.357 7.499 7.5 7.499zm7.5-62.414h9.879c5.669 0 10.458 4.631 10.458 10.113s-4.789 10.113-10.458 10.113c-2.28 0-6.284.018-9.879.036z" fill="#000000" data-original="#000000" style="" class=""/><path d="m234.224 197.194v-19.651c3.589-.018 7.599-.036 9.879-.036 14.037 0 25.458-11.266 25.458-25.113s-11.421-25.113-25.458-25.113h-17.379c-4.143 0-7.5 3.358-7.5 7.5v62.414c0 4.142 3.357 7.5 7.5 7.5s7.5-3.359 7.5-7.501zm0-54.914h9.879c5.669 0 10.458 4.631 10.458 10.113s-4.789 10.113-10.458 10.113c-2.28 0-6.284.018-9.879.036z" fill="#000000" data-original="#000000" style="" class=""/><path d="m393.382 184.978c-16.881 0-30.615 13.734-30.615 30.615s13.734 30.616 30.615 30.616 30.615-13.734 30.615-30.616-13.734-30.615-30.615-30.615zm0 46.231c-8.61 0-15.615-7.005-15.615-15.616s7.005-15.615 15.615-15.615 15.615 7.005 15.615 15.615-7.005 15.616-15.615 15.616z" fill="#000000" data-original="#000000" style="" class=""/><path d="m449.32 241.53c.72-1.546 1.377-3.128 1.964-4.724l17.761-1.691c6.852-.653 12.019-6.336 12.019-13.219v-12.606c0-6.883-5.167-12.566-12.02-13.219l-17.76-1.691c-.587-1.595-1.244-3.176-1.964-4.724l11.367-13.76c4.384-5.306 4.02-12.979-.848-17.847l-8.914-8.914c-4.868-4.867-12.539-5.232-17.847-.848l-13.76 11.367c-1.546-.72-3.128-1.377-4.724-1.964l-1.691-17.761c-.654-6.852-6.337-12.018-13.219-12.018h-12.606c-6.884 0-12.567 5.167-13.219 12.02l-1.692 17.759c-1.595.587-3.176 1.244-4.724 1.964l-13.759-11.367c-5.305-4.383-12.979-4.019-17.847.848l-8.914 8.915c-4.867 4.868-5.231 12.54-.848 17.846l11.367 13.76c-.719 1.543-1.376 3.125-1.964 4.724l-17.761 1.691c-6.853.653-12.02 6.336-12.02 13.219v12.606c0 6.883 5.167 12.566 12.021 13.219l17.76 1.691c.588 1.6 1.245 3.181 1.964 4.724l-11.367 13.76c-4.384 5.306-4.02 12.979.849 17.847l8.913 8.913c4.866 4.868 12.539 5.232 17.847.849l13.759-11.367c1.547.72 3.129 1.377 4.724 1.964l1.692 17.759c.651 6.853 6.335 12.021 13.219 12.021h12.606c6.882 0 12.564-5.167 13.219-12.02l1.691-17.759c1.596-.587 3.178-1.244 4.724-1.964l13.76 11.367c5.307 4.385 12.98 4.021 17.846-.848l8.915-8.914c4.867-4.868 5.231-12.54.848-17.846zm-12.266 8.703 11.072 13.404-6.7 6.701-13.404-11.073c-4.002-3.307-9.602-3.973-14.266-1.697-1.666.813-3.395 1.532-5.14 2.137-4.884 1.694-8.357 6.119-8.849 11.275l-1.647 17.296h-9.477l-1.646-17.293c-.489-5.157-3.963-9.583-8.85-11.278-1.743-.604-3.473-1.323-5.14-2.136-4.66-2.276-10.261-1.609-14.266 1.697l-13.403 11.073-6.7-6.701 11.071-13.403c3.308-4.002 3.975-9.601 1.698-14.267-.811-1.662-1.53-3.391-2.137-5.14-1.693-4.884-6.119-8.357-11.274-8.849l-17.297-1.647v-9.476l17.298-1.647c5.154-.492 9.58-3.965 11.273-8.848.606-1.75 1.326-3.479 2.139-5.143 2.274-4.664 1.607-10.262-1.699-14.263l-11.072-13.404 6.7-6.701 13.404 11.074c4.004 3.306 9.604 3.973 14.263 1.697 1.669-.814 3.398-1.533 5.143-2.138 4.886-1.694 8.359-6.121 8.848-11.275l1.647-17.296h9.477l1.647 17.297c.491 5.155 3.965 9.581 8.85 11.274 1.744.604 3.473 1.323 5.139 2.136 4.664 2.278 10.264 1.61 14.266-1.697l13.404-11.073 6.7 6.701-11.071 13.403c-3.309 4.003-3.976 9.604-1.7 14.264.814 1.669 1.534 3.4 2.139 5.143 1.693 4.884 6.119 8.357 11.274 8.849l17.296 1.647v9.476l-17.297 1.647c-5.154.492-9.58 3.965-11.273 8.848-.604 1.744-1.324 3.474-2.137 5.141-2.278 4.662-1.611 10.262 1.697 14.265z" fill="#000000" data-original="#000000" style="" class=""/></g></g></g></svg>
